#!OML:ASF F:\VICON\USERDATA\INSTALL\rory3\rory3.ASF
:FULLY-SPECIFIED
:DEGREES
248
root 4.41316 17.3897 3.13197 17.4029 -19.7918 -2.33753
lowerback -5.65458 3.82831 2.98698
upperback -9.68178 5.0244 -0.285033
thorax -6.68671 2.27032 -1.95713
lowerneck -11.4383 4.32075 2.12397
upperneck 40.6056 5.15442 1.95337
head 16.5319 2.70313 1.34356
rclavicle 3.18055e-015 1.45113e-014
rhumerus 16.0704 -18.5524 -6.35805
rradius 114.512
rwrist -54.9556
rhand -8.74637 -48.2797
rfingers 7.12502
rthumb 17.1906 -77.5393
lclavicle 3.18055e-015 1.45113e-014
lhumerus 33.0441 31.5941 -1.4763
lradius 53.797
lwrist 76.3915
lhand -23.2615 -14.7511
lfingers 7.12502
lthumb 3.19055 15.2047
rfemur -21.9733 -10.875 -1.75362
rtibia 27.0302
rfoot -27.7354 -30.0387
rtoes 46.5256
lfemur -27.1573 4.03981 -28.7991
ltibia 26.0602
lfoot -15.5221 12.6031
ltoes 16.9122
249
root 4.42095 17.3895 3.13114 17.3074 -20.0102 -2.38545
lowerback -5.53638 3.87699 2.94925
upperback -9.71997 5.09515 -0.283373
thorax -6.79512 2.30516 -1.94473
lowerneck -11.0398 4.25365 1.81956
upperneck 40.6183 5.01329 2.27454
head 16.412 2.64402 1.50043
rclavicle -5.04602e-014 -4.87022e-015
rhumerus 16.2202 -18.2341 -6.65642
rradius 114.388
rwrist -54.6849
rhand -8.66467 -48.4571
rfingers 7.12502
rthumb 17.2692 -77.7098
lclavicle -5.04602e-014 -4.87022e-015
lhumerus 33.0965 31.4049 -1.20847
lradius 54.2347
lwrist 76.1853
lhand -24.0688 -15.4477
lfingers 7.12502
lthumb 2.41089 14.5184
rfemur -22.3769 -11.0636 -1.69707
rtibia 27.3946
rfoot -26.5465 -31.2374
rtoes 45.6762
lfemur -27.0326 3.98119 -28.7702
ltibia 25.9957
lfoot -15.4703 12.8726
ltoes 16.9856
250
root 4.42991 17.3891 3.13125 17.2023 -20.1054 -2.49822
lowerback -5.39173 3.88835 3.00804
upperback -9.72093 5.11791 -0.240749
thorax -6.87661 2.31203 -1.94338
lowerneck -10.7425 4.23398 1.71695
upperneck 40.622 4.99272 2.32993
head 16.3331 2.62849 1.52866
rclavicle -3.02463e-014 -3.95581e-014
rhumerus 16.3838 -17.9915 -6.82084
rradius 114.299
rwrist -54.704
rhand -9.02921 -48.6628
rfingers 7.12502
rthumb 16.9183 -77.9459
lclavicle -3.02463e-014 -3.95581e-014
lhumerus 32.7061 30.6452 -1.57846
lradius 54.7867
lwrist 75.4693
lhand -28.8694 -21.3879
lfingers 7.12502
lthumb -2.22562 8.58028
rfemur -22.6723 -11.3441 -1.53159
rtibia 27.6702
rfoot -23.9095 -33.5072
rtoes 43.6179
lfemur -26.9089 3.88515 -28.65
ltibia 26.0022
lfoot -15.4488 13.0895
ltoes 17.2596
251
root 4.44188 17.3894 3.13173 17.0828 -20.0501 -2.62632
lowerback -5.32228 3.86477 3.16111
upperback -9.54012 5.08761 -0.199073
thorax -6.71163 2.29404 -1.98091
lowerneck -10.8673 4.2512 1.78101
upperneck 40.595 5.03537 2.23557
head 16.3561 2.642 1.48638
rclavicle 4.94787e-014 1.66979e-014
rhumerus 16.4765 -18.0336 -6.84115
rradius 114.29
rwrist -54.8858
rhand -9.42191 -48.6713
rfingers 7.12502
rthumb 16.5403 -77.9864
lclavicle 4.94787e-014 1.66979e-014
lhumerus 32.5975 30.5691 -1.55193
lradius 55.207
lwrist 75.3172
lhand -30.6257 -24.5519
lfingers 7.12502
lthumb -3.9217 5.39177
rfemur -22.8733 -11.7326 -1.31624
rtibia 27.9072
rfoot -19.9693 -36.1993
rtoes 40.5874
lfemur -26.7576 3.71991 -28.5015
ltibia 26.046
lfoot -15.4034 13.2462
ltoes 17.3646
252
root 4.45385 17.3904 3.13014 17.004 -20.001 -2.79199
lowerback -5.2788 3.85467 3.39802
upperback -9.29613 5.07008 -0.202576
thorax -6.45242 2.27864 -2.10667
lowerneck -11.2187 4.217 1.75243
upperneck 40.5932 4.94906 2.31551
head 16.4388 2.60929 1.52406
rclavicle 2.02947e-014 2.48481e-016
rhumerus 16.4863 -18.22 -6.92537
rradius 114.324
rwrist -54.9514
rhand -9.40872 -48.4219
rfingers 7.12502
rthumb 16.553 -77.7359
lclavicle 2.02947e-014 2.48481e-016
lhumerus 32.8223 31.0605 -1.09625
lradius 55.5286
lwrist 75.6467
lhand -29.7078 -25.0879
lfingers 7.12502
lthumb -3.03526 4.87022
rfemur -23.044 -12.0415 -1.10631
rtibia 28.1422
rfoot -19.3742 -36.7941
rtoes 40.244
lfemur -26.6381 3.59208 -28.325
ltibia 26.0958
lfoot -15.4135 13.3337
ltoes 17.5436
253
root 4.46217 17.3923 3.1236 16.9274 -20.1026 -2.91252
lowerback -5.00215 3.85783 3.45393
upperback -9.24565 5.08691 -0.194255
thorax -6.54997 2.28182 -2.14683
lowerneck -11.3377 4.15662 1.63308
upperneck 40.6682 4.8492 2.40599
head 16.5009 2.55881 1.57465
rclavicle 7.11339e-014 2.21645e-014
rhumerus 16.5397 -18.1284 -7.08977
rradius 114.385
rwrist -54.9033
rhand -9.48705 -48.1234
rfingers 7.12502
rthumb 16.4776 -77.4436
lclavicle 7.11339e-014 2.21645e-014
lhumerus 32.902 31.2616 -0.829428
lradius 55.9554
lwrist 76.2526
lhand -29.3799 -26.2771
lfingers 7.12502
lthumb -2.71859 3.68536
rfemur -23.3334 -12.1895 -0.955528
rtibia 28.3918
rfoot -19.2712 -37.1229
rtoes 40.494
lfemur -26.5873 3.58865 -28.2073
ltibia 26.1577
lfoot -15.3787 13.4546
ltoes 17.6953
254
root 4.46778 17.3951 3.11915 16.846 -20.2361 -3.0121
lowerback -4.63289 3.84627 3.41201
upperback -9.35783 5.09452 -0.133041
thorax -6.89118 2.28047 -2.09282
lowerneck -11.2378 4.08537 1.38321
upperneck 40.9686 4.75638 2.54367
head 16.624 2.49567 1.67142
rclavicle -2.32143e-014 -9.93923e-015
rhumerus 16.6779 -17.7137 -7.30544
rradius 114.445
rwrist -54.7989
rhand -9.48889 -48.0898
rfingers 7.12502
rthumb 16.4758 -77.4102
lclavicle -2.32143e-014 -9.93923e-015
lhumerus 32.6786 30.9726 -0.907314
lradius 56.4311
lwrist 76.9764
lhand -29.5224 -27.7319
lfingers 7.12502
lthumb -2.85626 2.22874
rfemur -23.6989 -12.3072 -0.795186
rtibia 28.6695
rfoot -18.349 -37.869
rtoes 40.0058
lfemur -26.5308 3.59771 -28.1009
ltibia 26.1957
lfoot -15.3459 13.5758
ltoes 17.9704
255
root 4.47219 17.3946 3.12082 16.8617 -20.3107 -3.14465
lowerback -4.51618 3.82435 3.44891
upperback -9.48297 5.07696 -0.0492395
thorax -7.10088 2.26518 -2.04014
lowerneck -11.1604 3.95353 1.19262
upperneck 41.3904 4.61075 2.53198
head 16.8319 2.39585 1.68875
rclavicle 2.45064e-014 9.93923e-015
rhumerus 16.8217 -17.3161 -7.46174
rradius 114.498
rwrist -54.7638
rhand -9.20207 -48.3827
rfingers 7.12502
rthumb 16.7519 -77.68
lclavicle 2.45064e-014 9.93923e-015
lhumerus 32.6384 30.691 -0.680166
lradius 56.7817
lwrist 77.0922
lhand -29.4823 -28.2967
lfingers 7.12502
lthumb -2.81747 1.66447
rfemur -24.0775 -12.4112 -0.608742
rtibia 28.9925
rfoot -19.8296 -37.3098
rtoes 40.9314
lfemur -26.5309 3.55697 -27.9576
ltibia 26.2352
lfoot -15.4832 13.637
ltoes 18.6326
256
root 4.47782 17.3911 3.12526 16.8582 -20.3954 -3.08868
lowerback -4.65899 3.81 3.3961
upperback -9.4856 5.04932 -0.062485
thorax -7.02643 2.25619 -2.01433
lowerneck -11.1546 3.83473 1.22934
upperneck 41.5635 4.50247 2.31056
head 16.9392 2.3213 1.57093
rclavicle 4.39873e-014 9.93923e-016
rhumerus 16.9253 -17.1917 -7.56891
rradius 114.548
rwrist -54.7666
rhand -8.89316 -48.6054
rfingers 7.12502
rthumb 17.0493 -77.8773
lclavicle 4.39873e-014 9.93923e-016
lhumerus 33.0194 30.8684 0.0558732
lradius 57.081
lwrist 76.7699
lhand -29.1434 -27.2605
lfingers 7.12502
lthumb -2.49024 2.7047
rfemur -24.3734 -12.4893 -0.69039
rtibia 29.2436
rfoot -21.9375 -36.007
rtoes 42.6246
lfemur -26.5604 3.51746 -28.0432
ltibia 26.2896
lfoot -15.6077 13.7182
ltoes 18.7953
257
root 4.4849 17.3819 3.13024 16.7852 -20.4655 -2.99076
lowerback -4.86296 3.84439 3.40079
upperback -9.33504 5.0781 -0.148409
thorax -6.73544 2.27614 -2.08439
lowerneck -11.1271 3.72734 1.20058
upperneck 41.4897 4.37955 2.21725
head 16.8947 2.25319 1.50952
rclavicle 3.51569e-014 4.22417e-015
rhumerus 16.8925 -17.223 -7.58726
rradius 114.578
rwrist -54.7547
rhand -8.68463 -48.506
rfingers 7.12502
rthumb 17.25 -77.7604
lclavicle 3.51569e-014 4.22417e-015
lhumerus 33.4013 31.1935 0.641387
lradius 57.4335
lwrist 76.8318
lhand -28.9576 -26.0664
lfingers 7.12502
lthumb -2.31079 3.90084
rfemur -24.5494 -12.6197 -0.852304
rtibia 29.361
rfoot -21.8358 -35.6844
rtoes 43.1747
lfemur -26.5254 3.4716 -28.1778
ltibia 26.3396
lfoot -15.6117 13.8246
ltoes 18.5503
258
root 4.49642 17.3794 3.14655 16.762 -20.4294 -3.1167
lowerback -5.08925 3.87275 3.64662
upperback -9.1702 5.09933 -0.16211
thorax -6.40583 2.28044 -2.20913
lowerneck -11.048 3.65305 1.12854
upperneck 41.4698 4.29182 2.19755
head 16.8622 2.20275 1.49517
rclavicle -6.55492e-014 -2.01269e-014
rhumerus 16.7851 -17.1188 -7.52895
rradius 114.622
rwrist -54.9442
rhand -9.01716 -48.2924
rfingers 7.12502
rthumb 16.9299 -77.5745
lclavicle -6.55492e-014 -2.01269e-014
lhumerus 33.5646 31.3112 0.937398
lradius 57.8062
lwrist 77.1935
lhand -29.2925 -26.6942
lfingers 7.12502
lthumb -2.63417 3.26931
rfemur -24.6806 -13.117 -0.692919
rtibia 29.4325
rfoot -17.4385 -37.1655
rtoes 40.9241
lfemur -26.4217 3.44627 -28.0953
ltibia 26.4353
lfoot -15.7267 13.8538
ltoes 18.5871
259
root 4.51083 17.3833 3.1717 16.728 -20.3749 -3.19424
lowerback -5.29835 3.8709 3.86041
upperback -9.06281 5.08042 -0.182801
thorax -6.15373 2.26441 -2.32776
lowerneck -11.2366 3.62457 1.16467
upperneck 41.6998 4.24448 2.17386
head 17.0429 2.18024 1.48402
rclavicle 5.32277e-014 1.0138e-014
rhumerus 16.7875 -16.9293 -7.62047
rradius 114.59
rwrist -55.0131
rhand -9.28214 -48.1531
rfingers 7.12502
rthumb 16.6748 -77.4569
lclavicle 5.32277e-014 1.0138e-014
lhumerus 33.6159 31.277 1.09813
lradius 58.212
lwrist 77.6826
lhand -29.3491 -28.1349
lfingers 7.12502
lthumb -2.68883 1.82794
rfemur -24.8049 -13.9352 -0.52393
rtibia 29.4682
rfoot -9.91666 -38.7052
rtoes 36.5002
lfemur -26.265 3.49873 -28.1108
ltibia 26.5417
lfoot -16.0022 13.7983
ltoes 18.6533
260
root 4.51943 17.3731 3.17377 16.6645 -20.3793 -3.20365
lowerback -5.2141 3.8646 3.89962
upperback -9.01211 5.07449 -0.199205
thorax -6.1423 2.25942 -2.37031
lowerneck -11.5062 3.58026 1.16393
upperneck 41.9291 4.18173 2.15326
head 17.2449 2.14565 1.48049
rclavicle 8.6285e-014 2.82026e-014
rhumerus 17.0179 -16.8186 -7.91434
rradius 114.417
rwrist -54.7268
rhand -8.86709 -48.1681
rfingers 7.12502
rthumb 17.0744 -77.4378
lclavicle 8.6285e-014 2.82026e-014
lhumerus 33.585 31.2022 1.09916
lradius 58.597
lwrist 78.1792
lhand -28.8905 -29.2248
lfingers 7.12502
lthumb -2.24597 0.743163
rfemur -25.0557 -14.305 -0.449485
rtibia 29.5485
rfoot -6.37071 -38.9313
rtoes 34.4214
lfemur -26.2378 3.62547 -28.166
ltibia 26.6358
lfoot -16.1085 13.7192
ltoes 18.6193
261
root 4.52678 17.3698 3.16091 16.5998 -20.3969 -3.21704
lowerback -5.02555 3.82543 3.82063
upperback -8.94451 5.03354 -0.16123
thorax -6.18771 2.24517 -2.29871
lowerneck -11.5528 3.54378 1.10922
upperneck 41.9605 4.16903 2.08021
head 17.2756 2.11968 1.45702
rclavicle -8.70956e-014 -1.79652e-014
rhumerus 17.321 -16.8079 -8.20603
rradius 114.314
rwrist -54.6788
rhand -8.42937 -48.4094
rfingers 7.12502
rthumb 17.4957 -77.6421
lclavicle -8.70956e-014 -1.79652e-014
lhumerus 33.5272 31.2239 1.1247
lradius 58.9613
lwrist 78.5076
lhand -28.7859 -30.4285
lfingers 7.12502
lthumb -2.1449 -0.459515
rfemur -25.3438 -14.2224 -0.399012
rtibia 29.6951
rfoot -10.3695 -38.0343
rtoes 37.7239
lfemur -26.2817 3.76351 -28.1738
ltibia 26.6799
lfoot -16.0675 13.6291
ltoes 18.4407
262
root 4.5315 17.3679 3.1568 16.5095 -20.5489 -3.11123
lowerback -5.04891 3.83238 3.61474
upperback -8.83728 5.0413 -0.161207
thorax -6.0732 2.2665 -2.17891
lowerneck -11.4477 3.45752 1.03358
upperneck 41.8957 4.10273 1.96359
head 17.2132 2.06451 1.40025
rclavicle -1.2101e-014 1.44119e-015
rhumerus 17.4951 -16.8338 -8.37465
rradius 114.287
rwrist -54.8282
rhand -8.26664 -48.6112
rfingers 7.12502
rthumb 17.6523 -77.8299
lclavicle -1.2101e-014 1.44119e-015
lhumerus 33.3688 31.1923 1.07621
lradius 59.439
lwrist 78.9105
lhand -29.079 -31.1658
lfingers 7.12502
lthumb -2.42804 -1.19986
rfemur -25.7178 -14.1506 -0.513288
rtibia 29.9471
rfoot -14.1853 -36.5694
rtoes 40.447
lfemur -26.297 3.8595 -28.3106
ltibia 26.7542
lfoot -16.1652 13.6005
ltoes 18.5911
